<?xml version="1.0" encoding="utf-8"?>
<!-- Generator: Adobe Illustrator 27.0.0, SVG Export Plug-In . SVG Version: 6.00 Build 0)  -->
<svg version="1.1" xmlns="http://www.w3.org/2000/svg" xmlns:xlink="http://www.w3.org/1999/xlink" x="0px" y="0px"
	 viewBox="0 0 1080 1080" style="enable-background:new 0 0 1080 1080;" xml:space="preserve">
<style type="text/css">
	.st0{fill:url(#SVGID_1_);}
	.st1{fill:url(#SVGID_00000044135330535013758040000016076474582933877667_);}
	.st2{fill:url(#SVGID_00000070828640389326326100000008520237261864442497_);}
	.st3{fill:url(#SVGID_00000060021452669861922590000002574950267979011464_);}
	.st4{display:none;}
	.st5{fill:url(#SVGID_00000170972820906005477310000003313505485039420584_);}
	.st6{display:none;fill:#ED1C24;}
	.st7{fill:#ED1C24;}
	.st8{fill:url(#SVGID_00000021819299635200832430000001830513468986739880_);}
	.st9{fill:url(#SVGID_00000087383287833019760350000007407875956773520562_);}
	.st10{fill:url(#SVGID_00000027586805436148330970000016488092373346090402_);}
	.st11{fill:#231F20;}
	.st12{fill:#FFFFFF;}
</style>
<g id="Layer_1">
</g>
<g id="Layer_6">
</g>
<g id="Layer_2">
	<rect class="st4" width="1080" height="1080"/>
</g>
<g id="Layer_4">
</g>
<g id="Layer_3">
</g>
<g id="Layer_5">
	<linearGradient id="SVGID_1_" gradientUnits="userSpaceOnUse" x1="535.9328" y1="593.9077" x2="468.5198" y2="477.145">
		<stop  offset="3.516341e-07" style="stop-color:#FFFFFF"/>
		<stop  offset="0.0779" style="stop-color:#FAFAFA"/>
		<stop  offset="0.1746" style="stop-color:#EAEAEA"/>
		<stop  offset="0.2812" style="stop-color:#D1D1D1"/>
		<stop  offset="0.395" style="stop-color:#AEAEAE"/>
		<stop  offset="0.5144" style="stop-color:#818181"/>
		<stop  offset="0.6387" style="stop-color:#494949"/>
		<stop  offset="0.7645" style="stop-color:#090909"/>
		<stop  offset="0.781" style="stop-color:#000000"/>
	</linearGradient>
	<path class="st0" d="M369.43,576.84c55.98-40.69,111.96-81.39,167.94-122.08c24.99,0.06,49.98,0.11,74.97,0.17
		c-6.51,41.17-13.01,82.34-19.52,123.5c-16.14-0.44-32.29-0.88-48.44-1.32c-12.7-11.2-25.41-22.41-38.11-33.61
		c17.62,0.36,35.25,0.72,52.87,1.08c3.46-19.06,6.92-38.13,10.39-57.19c-40.85,30.08-81.7,60.17-122.54,90.25
		C421.13,577.37,395.28,577.11,369.43,576.84z"/>
	
		<linearGradient id="SVGID_00000018926489271406269650000003837028159812925363_" gradientUnits="userSpaceOnUse" x1="384.5235" y1="483.6986" x2="443.5305" y2="573.9168">
		<stop  offset="0" style="stop-color:#000000"/>
		<stop  offset="0.0148" style="stop-color:#270506"/>
		<stop  offset="0.0332" style="stop-color:#50090C"/>
		<stop  offset="0.0539" style="stop-color:#760E12"/>
		<stop  offset="0.0763" style="stop-color:#961217"/>
		<stop  offset="0.1012" style="stop-color:#B2151B"/>
		<stop  offset="0.1293" style="stop-color:#C8181E"/>
		<stop  offset="0.162" style="stop-color:#D91A21"/>
		<stop  offset="0.2025" style="stop-color:#E41B23"/>
		<stop  offset="0.2594" style="stop-color:#EB1C24"/>
		<stop  offset="0.4171" style="stop-color:#ED1C24"/>
		<stop  offset="0.4863" style="stop-color:#D81A21"/>
		<stop  offset="0.6295" style="stop-color:#A21319"/>
		<stop  offset="0.8321" style="stop-color:#4C090C"/>
		<stop  offset="1" style="stop-color:#000000"/>
	</linearGradient>
	<path style="fill:url(#SVGID_00000018926489271406269650000003837028159812925363_);" d="M369.43,576.84
		c22.8,0.14,45.6,0.28,68.4,0.43c0.6-41.84,1.2-83.68,1.8-125.52c-22.54,16.7-45.08,33.41-67.62,50.11
		C371.15,526.85,370.29,551.85,369.43,576.84z"/>
	
		<linearGradient id="SVGID_00000030447506659054885440000012485951895399095196_" gradientUnits="userSpaceOnUse" x1="581.6686" y1="424.2548" x2="398.4469" y2="607.4766">
		<stop  offset="0" style="stop-color:#ED1C24"/>
		<stop  offset="0.0669" style="stop-color:#ED1C24"/>
		<stop  offset="1" style="stop-color:#ED1C24"/>
	</linearGradient>
	<path style="fill:url(#SVGID_00000030447506659054885440000012485951895399095196_);" d="M367.78,576.81
		c26.4,0.28,52.8,0.55,79.2,0.83c55.12-40.9,110.24-81.81,165.36-122.71c-24.99-0.06-49.98-0.11-74.97-0.17
		C480.84,495.44,424.31,536.12,367.78,576.81z"/>
	<path class="st7" d="M196.73,574.19c25.85,0.09,51.7,0.18,77.55,0.27c55.12-40.9,110.24-81.81,165.36-122.71
		c-24.99-0.06-49.98-0.11-74.97-0.17C308.69,492.45,252.71,533.32,196.73,574.19z"/>
	<g>
		<g>
			<path class="st11" d="M627.84,580.62l12.44-32.44h3.94l12.49,32.44h-4.21l-3.28-8.69h-14.05l-3.1,8.69H627.84z M636.44,568.51
				h11.54l-5.25-14.23c-0.09-0.23-0.17-0.52-0.25-0.88c-0.08-0.36-0.16-0.79-0.25-1.29h-0.09c-0.08,0.45-0.15,0.86-0.24,1.22
				c-0.08,0.36-0.18,0.68-0.28,0.95L636.44,568.51z"/>
			<path class="st11" d="M680.63,580.62H663.8v-32.44h3.8v29h13.03V580.62z"/>
			<path class="st11" d="M699.17,580.62l12.44-32.44h3.94l12.49,32.44h-4.21l-3.28-8.69H706.5l-3.1,8.69H699.17z M707.77,568.51
				h11.54l-5.25-14.23c-0.09-0.23-0.17-0.52-0.25-0.88c-0.08-0.36-0.16-0.79-0.25-1.29h-0.09c-0.08,0.45-0.15,0.86-0.24,1.22
				c-0.08,0.36-0.18,0.68-0.28,0.95L707.77,568.51z"/>
			<path class="st11" d="M768.19,580.62h-3.78v-21.76c0-0.86,0.03-1.82,0.08-2.87s0.13-2.2,0.24-3.44h-0.09
				c-0.18,0.72-0.35,1.35-0.51,1.88c-0.16,0.53-0.31,0.95-0.46,1.27l-11.08,24.93h-1.85l-11.06-24.75
				c-0.15-0.36-0.31-0.82-0.48-1.38c-0.17-0.56-0.33-1.21-0.5-1.95h-0.09c0.06,0.65,0.11,1.5,0.14,2.56
				c0.03,1.06,0.05,2.32,0.05,3.8v21.72h-3.66v-32.44h5.02l9.95,22.62c0.39,0.86,0.71,1.61,0.96,2.26c0.25,0.65,0.43,1.19,0.53,1.63
				h0.14c0.33-0.89,0.63-1.67,0.88-2.33c0.26-0.66,0.48-1.21,0.68-1.65l10.16-22.53h4.75V580.62z"/>
			<path class="st11" d="M775.28,580.62l12.44-32.44h3.94l12.49,32.44h-4.21l-3.28-8.69h-14.05l-3.1,8.69H775.28z M783.88,568.51
				h11.54l-5.25-14.23c-0.09-0.23-0.17-0.52-0.25-0.88c-0.08-0.36-0.16-0.79-0.25-1.29h-0.09c-0.08,0.45-0.15,0.86-0.24,1.22
				c-0.08,0.36-0.18,0.68-0.28,0.95L783.88,568.51z"/>
			<path class="st11" d="M828.07,580.62h-16.83v-32.44h3.8v29h13.03V580.62z"/>
		</g>
	</g>
	<g>
		<g>
			<path class="st11" d="M659.23,536.75h-4.66l-16.69-25.86c-0.21-0.33-0.4-0.67-0.58-1.01c-0.17-0.34-0.33-0.68-0.46-1.03h-0.14
				c0.06,0.35,0.11,0.89,0.14,1.63c0.03,0.74,0.04,1.68,0.04,2.83v23.44h-3.8v-32.44h4.93l16.24,25.45
				c0.35,0.53,0.63,0.97,0.85,1.33c0.22,0.36,0.37,0.64,0.46,0.84h0.09c-0.08-0.47-0.13-1.1-0.17-1.9c-0.04-0.8-0.06-1.76-0.06-2.87
				v-22.85h3.8V536.75z"/>
			<path class="st11" d="M683.13,537.29c-4.6,0-8.28-1.52-11.05-4.55c-2.77-3.03-4.15-6.97-4.15-11.83c0-5.22,1.41-9.38,4.23-12.49
				c2.82-3.11,6.66-4.66,11.51-4.66c4.48,0,8.09,1.51,10.82,4.52c2.74,3.02,4.11,6.96,4.11,11.83c0,5.29-1.4,9.48-4.21,12.55
				C691.59,535.76,687.83,537.29,683.13,537.29z M683.13,533.88c3.56,0,6.36-1.16,8.41-3.48s3.08-5.57,3.08-9.75
				c0-4.28-1-7.59-2.99-9.93c-1.99-2.34-4.74-3.51-8.23-3.51c-3.41,0-6.18,1.23-8.3,3.69c-2.13,2.46-3.19,5.69-3.19,9.68
				s1.04,7.21,3.11,9.65C677.09,532.66,679.8,533.88,683.13,533.88z"/>
			<path class="st11" d="M720.37,537.29c-4.6,0-8.28-1.52-11.05-4.55c-2.77-3.03-4.15-6.97-4.15-11.83c0-5.22,1.41-9.38,4.23-12.49
				c2.82-3.11,6.66-4.66,11.51-4.66c4.48,0,8.09,1.51,10.82,4.52c2.74,3.02,4.11,6.96,4.11,11.83c0,5.29-1.4,9.48-4.21,12.55
				C728.83,535.76,725.08,537.29,720.37,537.29z M720.37,533.88c3.56,0,6.36-1.16,8.41-3.48s3.08-5.57,3.08-9.75
				c0-4.28-1-7.59-2.99-9.93c-1.99-2.34-4.74-3.51-8.23-3.51c-3.41,0-6.18,1.23-8.3,3.69c-2.13,2.46-3.19,5.69-3.19,9.68
				s1.04,7.21,3.11,9.65C714.34,532.66,717.04,533.88,720.37,533.88z"/>
			<path class="st11" d="M767.52,536.75H763l-5.56-9.21c-1.04-1.72-1.93-2.82-2.67-3.31s-1.64-0.74-2.69-0.74h-3.73v13.26h-3.8
				v-32.44h9.68c2.82,0,5.17,0.75,7.05,2.24c1.88,1.49,2.82,3.69,2.82,6.6c0,2.29-0.6,4.22-1.79,5.77
				c-1.19,1.55-2.83,2.68-4.91,3.37v0.09c0.68,0.41,1.27,0.85,1.79,1.33s1.06,1.19,1.63,2.13L767.52,536.75z M748.34,507.75v12.31
				h5.16c1.88,0,3.46-0.61,4.72-1.83s1.89-2.8,1.89-4.75c0-1.73-0.56-3.12-1.69-4.16c-1.12-1.04-2.75-1.56-4.87-1.56H748.34z"/>
		</g>
	</g>
</g>
</svg>
